<svg xmlns="http://www.w3.org/2000/svg" width="620" height="620" viewBox="0 0 620 620">
  <g fill="none" stroke="#d6b567" stroke-width="1.05" stroke-linecap="round" stroke-linejoin="round" opacity=".2">
    <path d="M72 392c66-96 169-125 248-79 44 25 78 24 118-3 33-23 68-28 105-10"/>
    <path d="M126 356c40-38 90-51 141-36 34 10 66 33 100 31 43-2 71-42 114-43"/>
    <path d="M181 302c26-26 60-42 98-38 33 3 57 24 88 29 41 7 74-14 107-39"/>
    <path d="M383 232c23-31 58-43 94-34 18 4 32 15 47 27"/>
    <path d="M456 198c22-21 53-23 78-4"/>
    <path d="M238 344c-18 25-23 52-17 83"/>
    <path d="M319 359c-12 33-10 62 5 91"/>
    <path d="M416 346c-11 23-9 45 4 69"/>
    <path d="M120 436c53 28 112 33 174 14"/>
    <path d="M350 444c72 20 140 4 200-45"/>
    <path d="M503 222l20-38 9 43"/>
    <path d="M475 202l-6-42 32 30"/>
    <path d="M91 421c-31-9-52-24-65-45"/>
    <path d="M46 378c22 8 43 8 64 0"/>
    <path d="M532 306c30 8 51 23 62 45"/>
    <path d="M479 365c29-9 55-8 80 5"/>
  </g>
  <g fill="none" stroke="#f0d48d" stroke-width=".7" stroke-linecap="round" opacity=".13">
    <path d="M212 316c18-7 37-8 56-2"/>
    <path d="M267 309c16 8 32 14 50 17"/>
    <path d="M334 320c23 1 43-7 60-24"/>
    <path d="M424 240c15-11 31-14 49-10"/>
    <path d="M143 379c24-17 51-23 82-18"/>
    <path d="M401 402c42 10 80 3 116-22"/>
  </g>
</svg>
