<svg xmlns="http://www.w3.org/2000/svg" width="360" height="360" viewBox="0 0 360 360">
  <g fill="none" stroke="#5f5a52" stroke-width="1.1" stroke-linecap="round" stroke-linejoin="round" opacity=".22">
    <path d="M42 228c38-56 98-72 144-46 25 14 45 14 68-2 19-13 39-16 61-6"/>
    <path d="M74 207c23-22 52-30 82-21 20 6 38 19 58 18 25-1 41-24 66-25"/>
    <path d="M105 176c15-15 35-24 57-22 19 2 33 14 51 17 24 4 43-8 62-22"/>
    <path d="M223 135c13-18 33-25 54-20 10 3 18 9 27 15"/>
    <path d="M265 115c13-12 31-13 45-2"/>
    <path d="M138 200c-10 14-13 30-10 48"/>
    <path d="M185 209c-7 19-6 36 3 53"/>
    <path d="M241 201c-6 13-5 26 2 40"/>
    <path d="M70 252c31 16 65 19 101 8"/>
    <path d="M203 257c42 11 81 2 116-26"/>
    <path d="M292 129l12-22 5 25"/>
    <path d="M276 117l-3-24 18 17"/>
  </g>
</svg>
